<?xml version="1.0" encoding="iso-8859-1"?>
<!-- Generator: Adobe Illustrator 19.0.0, SVG Export Plug-In . SVG Version: 6.00 Build 0)  -->
<svg version="1.1" id="Layer_1" xmlns="http://www.w3.org/2000/svg" xmlns:xlink="http://www.w3.org/1999/xlink" x="0px" y="0px"
	 viewBox="0 0 485 485" style="enable-background:new 0 0 485 485;" xml:space="preserve">
<path d="M424.456,227.5C417.206,138.766,346.234,67.794,257.5,60.544V0h-30v60.544C138.766,67.794,67.794,138.766,60.544,227.5H0v30
	h60.544c7.251,88.734,78.222,159.706,166.956,166.956V485h30v-60.544c88.734-7.251,159.706-78.222,166.956-166.956H485v-30H424.456z
	 M394.338,257.5c-7.076,72.18-64.658,129.762-136.838,136.838v-64.186h-30v64.186C155.32,387.262,97.738,329.68,90.662,257.5h64.186
	v-30H90.662C97.738,155.32,155.32,97.738,227.5,90.662v64.186h30V90.662c72.18,7.076,129.762,64.658,136.838,136.838h-64.186v30
	H394.338z"/>
<g>
</g>
<g>
</g>
<g>
</g>
<g>
</g>
<g>
</g>
<g>
</g>
<g>
</g>
<g>
</g>
<g>
</g>
<g>
</g>
<g>
</g>
<g>
</g>
<g>
</g>
<g>
</g>
<g>
</g>
</svg>
